<?xml version="1.0" encoding="UTF-8" standalone="no"?><!DOCTYPE svg PUBLIC "-//W3C//DTD SVG 1.1//EN" "http://www.w3.org/Graphics/SVG/1.1/DTD/svg11.dtd"><svg width="100%" height="100%" viewBox="0 0 960 541" version="1.1" xmlns="http://www.w3.org/2000/svg" xmlns:xlink="http://www.w3.org/1999/xlink" xml:space="preserve" xmlns:serif="http://www.serif.com/" style="fill-rule:evenodd;clip-rule:evenodd;stroke-linecap:round;stroke-linejoin:round;stroke-miterlimit:1.5;"><rect id="groupli-is-live" x="0" y="0.014" width="960" height="540" style="fill:none;"/><g><rect x="0.85" y="-0" width="959.15" height="541" style="fill:#eee;"/><g><g><path d="M161.383,252.183c1.721,2.67 3.123,5.719 4.159,9.014c1.031,3.348 1.702,6.887 2.041,10.66c0.318,3.679 0.251,7.509 -0.183,11.332c-0.41,3.611 -1.058,6.351 -1.945,8.222c-0.881,1.818 -1.989,2.66 -3.265,2.554c-1.296,-0.2 -2.742,-1.508 -4.332,-3.976c-0.913,-1.416 -1.717,-2.976 -2.465,-4.761c-0.722,-1.745 -1.347,-3.527 -1.871,-5.401c-0.523,-1.874 -0.878,-3.611 -1.116,-5.292c0.172,-0.169 0.435,-0.324 0.841,-0.382c0.385,-0.151 0.796,-0.263 1.259,-0.293c0.464,-0.03 0.889,0.005 1.276,0.107c0.171,1.201 0.385,2.283 0.632,3.352c0.252,1.017 0.543,1.967 0.924,2.933c0.361,0.873 0.838,1.801 1.36,2.61c0.495,0.769 1.02,1.272 1.524,1.429c0.53,0.197 1.011,0.007 1.465,-0.476c0.473,-0.389 0.872,-1.205 1.244,-2.315c0.339,-1.098 0.624,-2.529 0.823,-4.281c0.265,-2.336 0.338,-4.596 0.218,-6.781c-0.14,-2.278 -0.485,-4.374 -1.022,-6.394c-0.543,-1.968 -1.323,-3.74 -2.34,-5.318c-0.678,-1.052 -1.288,-1.623 -1.791,-1.78c-0.51,-0.104 -0.933,0.113 -1.25,0.745c-0.311,0.579 -0.53,1.426 -0.651,2.488c-0.03,0.266 -0.06,0.531 -0.09,0.797c-0.024,0.212 -0.022,0.465 -0.046,0.677c0.144,0.349 0.393,0.86 0.746,1.533c0.353,0.672 0.758,1.426 1.163,2.179c0.431,0.794 0.836,1.548 1.241,2.301c0.411,0.701 0.718,1.239 0.979,1.644c-0.054,0.478 -0.115,1.009 -0.193,1.699c-0.078,0.69 -0.183,1.34 -0.261,2.03c-0.105,0.65 -0.191,1.141 -0.239,1.565c-0.652,-1.011 -1.396,-2.291 -2.258,-3.879c-0.895,-1.575 -1.777,-3.256 -2.66,-4.938c-0.882,-1.681 -1.654,-3.254 -2.27,-4.584c0,-0.812 0.033,-1.636 0.071,-2.513c0.07,-0.89 0.129,-1.674 0.207,-2.364c0.295,-2.602 0.801,-4.627 1.512,-6.023c0.716,-1.449 1.613,-2.055 2.696,-1.873c1.11,0.223 2.407,1.487 3.867,3.753Z" style="fill:#17a34a;fill-rule:nonzero;"/></g><g><path d="M146.622,258.628c-0.331,0.485 -0.734,0.796 -1.256,0.799c-0.527,0.055 -1.115,-0.17 -1.769,-0.622c-0.628,-0.413 -1.278,-1.171 -1.904,-2.142c-0.417,-0.648 -0.796,-1.361 -1.195,-2.167c-0.373,-0.766 -0.662,-1.464 -0.84,-2.053l1.568,-6.248c0.164,0.443 0.407,1.007 0.696,1.704c0.289,0.698 0.641,1.371 1.059,2.018c0.443,0.688 0.904,1.216 1.357,1.545c0.454,0.329 0.893,0.511 1.292,0.506c0.432,-0.018 0.817,-0.169 1.162,-0.508c0.016,-1.224 0.069,-2.766 0.157,-4.627c0.057,-1.848 0.171,-3.669 0.266,-5.583c0.095,-1.914 0.197,-3.628 0.308,-5.142c0.085,-1.555 0.179,-2.658 0.257,-3.348c0.56,0.744 1.198,1.608 1.902,2.701c0.71,1.039 1.388,2.091 2.039,3.102c-0.174,1.54 -0.367,3.239 -0.526,5.178c-0.191,1.952 -0.356,3.945 -0.507,6.084c-0.151,2.139 -0.302,4.278 -0.42,6.404c-0.119,2.126 -0.2,4.187 -0.268,6.141c-0.069,1.955 -0.087,3.737 -0.081,5.308c-0.39,-0.354 -0.805,-0.749 -1.266,-1.277c-0.467,-0.476 -0.903,-0.964 -1.254,-1.384c-0.383,-0.407 -0.623,-0.718 -0.728,-0.88c-0.07,-0.733 -0.09,-1.638 -0.112,-2.796c-0.021,-1.158 -0.009,-2.076 0.063,-2.713Z" style="fill:#17a34a;fill-rule:nonzero;"/></g><g><path d="M135.44,212.612c2.295,3.56 3.871,7.505 4.703,11.793c0.863,4.276 1.021,8.829 0.479,13.608c-0.356,3.133 -0.938,5.289 -1.779,6.483c-0.809,1.18 -1.824,1.479 -2.987,0.922c-1.164,-0.556 -2.429,-1.833 -3.811,-3.978c-1.434,-2.225 -2.529,-4.736 -3.317,-7.519c-0.788,-2.784 -1.255,-5.695 -1.459,-8.759c-0.204,-3.064 -0.125,-6.19 0.225,-9.269c0.301,-2.655 0.827,-4.587 1.551,-5.835c0.719,-1.196 1.624,-1.603 2.715,-1.221c1.085,0.435 2.299,1.631 3.68,3.775Zm-0.629,6.892c-0.547,-0.849 -1.067,-1.406 -1.526,-1.681c-0.466,-0.223 -0.865,-0.218 -1.236,0.081c-0.339,0.285 -0.644,0.811 -0.883,1.565c-0.259,0.659 -0.426,1.587 -0.546,2.649c-0.199,1.752 -0.249,3.548 -0.166,5.239c0.078,1.745 0.323,3.373 0.728,4.938c0.385,1.472 0.942,2.774 1.672,3.907c0.756,1.173 1.424,1.772 1.978,1.757c0.586,-0.028 1.065,-0.47 1.445,-1.38c0.373,-0.857 0.666,-2.088 0.835,-3.575c0.277,-2.443 0.219,-4.905 -0.147,-7.348c-0.393,-2.483 -1.085,-4.493 -2.154,-6.152Z" style="fill:#17a34a;fill-rule:nonzero;"/></g><g><path d="M115.121,212.68c-0.195,-0.177 -0.494,-0.516 -0.839,-0.989c-0.377,-0.46 -0.716,-0.986 -1.055,-1.512c-0.287,-0.445 -0.599,-0.93 -0.932,-1.509c-0.333,-0.579 -0.614,-1.077 -0.817,-1.454c0.045,-1.742 0.142,-3.403 0.244,-5.118c0.097,-1.661 0.245,-3.241 0.42,-4.781c0.29,-2.548 0.659,-4.723 1.127,-6.682c0.462,-1.907 1.05,-3.305 1.738,-4.235c0.662,-0.971 1.491,-1.246 2.408,-0.948c0.922,0.246 1.993,1.345 3.193,3.207c1.303,2.022 2.286,4.172 3,6.528c0.719,2.304 1.208,4.749 1.467,7.335c0.258,2.587 0.33,5.196 0.229,7.975c-0.069,2.766 -0.292,5.542 -0.611,8.356c-0.157,1.381 -0.346,2.774 -0.535,4.167c-0.215,1.353 -0.403,2.746 -0.612,4.045c-0.215,-0.27 -0.476,-0.675 -0.821,-1.148c-0.312,-0.485 -0.625,-0.971 -0.886,-1.375c-0.359,-0.62 -0.75,-1.227 -1.129,-1.94c-0.353,-0.672 -0.654,-1.264 -0.877,-1.734c0.229,-1.206 0.444,-2.559 0.659,-3.912c0.215,-1.352 0.404,-2.745 0.567,-4.179c0.295,-2.602 0.45,-5.047 0.491,-7.294c0.04,-2.248 -0.098,-4.273 -0.369,-5.942c-0.29,-1.762 -0.771,-3.196 -1.423,-4.208c-0.626,-0.971 -1.208,-1.249 -1.713,-0.847c-0.5,0.349 -0.943,1.284 -1.325,2.753c-0.381,1.469 -0.721,3.378 -0.98,5.661c-0.175,1.54 -0.303,3.214 -0.406,4.928c-0.129,1.674 -0.187,3.269 -0.213,4.852Z" style="fill:#17a34a;fill-rule:nonzero;"/></g><g><path d="M113.101,164.833c-0.424,2.652 -0.865,5.463 -1.325,8.434c-0.434,3.011 -0.868,6.023 -1.296,8.981c-0.408,3.052 -0.791,5.891 -1.157,8.571c-0.34,2.72 -0.649,5.176 -0.916,7.259c-0.273,2.136 -0.466,3.835 -0.605,5.057c-0.499,-0.463 -1.071,-1.1 -1.715,-1.912c-0.644,-0.812 -1.249,-1.689 -1.849,-2.62c0.06,-0.531 0.113,-1.261 0.203,-2.058c0.058,-0.784 0.143,-1.527 0.215,-2.164c-0.237,0.195 -0.61,0.24 -1.099,0.23c-0.49,-0.01 -1.078,-0.235 -1.758,-0.729c-0.686,-0.44 -1.414,-1.32 -2.196,-2.533c-1.747,-2.711 -2.924,-5.849 -3.525,-9.467c-0.633,-3.606 -0.695,-7.386 -0.236,-11.421c0.319,-2.814 0.857,-4.852 1.588,-6.154c0.73,-1.302 1.615,-1.802 2.654,-1.501c1.013,0.26 2.122,1.294 3.321,3.155c0.548,0.85 1.077,1.859 1.621,3.015c0.537,1.208 0.99,2.349 1.385,3.461c0.395,1.113 0.66,2.023 0.8,2.678c0.043,-0.372 0.127,-1.115 0.268,-2.084c0.14,-0.968 0.293,-2.042 0.47,-3.329c0.196,-1.194 0.373,-2.481 0.576,-3.727c0.177,-1.287 0.368,-2.427 0.526,-3.555c0.179,-1.034 0.334,-1.856 0.432,-2.453c0.435,0.488 0.865,1.03 1.346,1.652c0.455,0.581 0.904,1.216 1.302,1.77c0.417,0.647 0.736,1.079 0.97,1.444Zm-9.968,9.199c-0.704,-1.092 -1.314,-1.664 -1.817,-1.821c-0.51,-0.103 -0.945,0.22 -1.274,0.959c-0.355,0.697 -0.604,1.81 -0.773,3.296c-0.223,1.965 -0.163,3.869 0.159,5.619c0.349,1.79 0.993,3.413 1.931,4.87c0.574,0.89 1.12,1.486 1.657,1.883c0.512,0.357 0.957,0.486 1.356,0.481c0.367,0.008 0.682,-0.066 0.887,-0.248c0.03,-0.265 0.078,-0.69 0.151,-1.327c0.098,-0.597 0.182,-1.34 0.293,-2.043c0.09,-0.796 0.175,-1.54 0.279,-2.19c0.078,-0.69 0.139,-1.221 0.207,-1.552c-0.146,-0.602 -0.313,-1.297 -0.577,-2.207c-0.239,-0.87 -0.562,-1.808 -0.969,-2.815c-0.407,-1.006 -0.91,-1.974 -1.51,-2.905Z" style="fill:#17a34a;fill-rule:nonzero;"/></g><g><path d="M88.217,141.768c0.295,-0.167 0.772,-0.051 1.458,0.389c0.66,0.4 1.394,1.227 2.176,2.44c1.043,1.619 1.771,3.31 2.172,5.181c0.433,1.859 0.609,3.818 0.581,5.96c-0.035,2.195 -0.198,4.44 -0.475,6.882c-0.205,1.805 -0.416,3.664 -0.659,5.535c-0.217,1.911 -0.466,3.835 -0.709,5.706c-0.269,1.831 -0.513,3.702 -0.744,5.467c-0.263,1.777 -0.482,3.436 -0.721,5.001c-0.213,1.605 -0.434,3.011 -0.61,4.298c-0.554,-0.797 -1.055,-1.512 -1.525,-2.241c-0.312,-0.485 -0.593,-0.983 -0.88,-1.428c-0.307,-0.539 -0.614,-1.077 -0.947,-1.656c0.215,-1.353 0.428,-2.959 0.691,-4.736c0.257,-1.724 0.527,-3.555 0.796,-5.385c0.275,-1.884 0.518,-3.755 0.781,-5.532c0.269,-1.831 0.488,-3.49 0.689,-4.989c0.201,-1.499 0.346,-2.774 0.46,-3.782c0.139,-1.222 0.239,-2.377 0.308,-3.52c0.074,-1.196 0.04,-2.248 -0.064,-3.221c-0.136,-0.961 -0.381,-1.778 -0.746,-2.344c-0.339,-0.526 -0.591,-0.731 -0.81,-0.695c-0.239,-0.059 -0.443,0.123 -0.622,0.346c-0.034,-0.24 -0.07,-0.733 -0.14,-1.467c-0.064,-0.786 -0.128,-1.572 -0.18,-2.465c-0.084,-0.88 -0.148,-1.666 -0.192,-2.359c-0.044,-0.693 -0.08,-1.186 -0.088,-1.385Z" style="fill:#17a34a;fill-rule:nonzero;"/></g><g><path d="M82.937,131.952c0.131,0.202 0.397,0.553 0.768,1.067c0.345,0.473 0.737,1.079 1.128,1.686c0.312,0.486 0.625,0.971 0.906,1.469c0.307,0.539 0.588,1.037 0.868,1.535c-0.08,0.438 -0.241,1.312 -0.455,2.665c-0.209,1.3 -0.454,2.918 -0.73,4.801c-0.301,1.844 -0.582,3.78 -0.869,5.77c-0.287,1.99 -0.531,3.861 -0.768,5.679c-0.231,1.765 -0.419,3.158 -0.546,4.273c-0.156,-0.243 -0.365,-0.567 -0.684,-0.999c-0.293,-0.392 -0.606,-0.877 -0.951,-1.35c-0.365,-0.567 -0.684,-0.999 -0.996,-1.485c-0.313,-0.485 -0.58,-0.837 -0.736,-1.079c0.008,-0.612 0.078,-1.502 0.185,-2.711c0.1,-1.155 0.245,-2.43 0.408,-3.863c0.18,-1.593 0.379,-3.345 0.616,-5.163c0.211,-1.858 0.468,-3.583 0.693,-5.294c0.225,-1.712 0.452,-3.171 0.655,-4.417c0.203,-1.247 0.364,-2.122 0.508,-2.584Zm-1.969,30.042c0.73,1.133 1.281,2.488 1.654,4.066c0.373,1.577 0.481,3.057 0.324,4.437c-0.114,1.009 -0.335,1.603 -0.622,1.97c-0.313,0.326 -0.66,0.412 -1.067,0.217c-0.407,-0.195 -0.817,-0.642 -1.234,-1.29c-0.652,-1.011 -1.151,-2.286 -1.466,-3.835c-0.34,-1.591 -0.416,-3.083 -0.26,-4.463c0.139,-1.221 0.468,-1.96 0.988,-2.215c0.487,-0.243 1.057,0.142 1.683,1.113Z" style="fill:#17a34a;fill-rule:nonzero;"/></g><g><path d="M73.505,130.491c0.24,0.311 0.547,0.85 0.938,1.457c0.385,0.66 0.803,1.307 1.188,1.967c0.385,0.66 0.718,1.239 0.94,1.71c-0.135,1.726 -0.313,3.572 -0.478,5.564c-0.191,1.952 -0.388,3.957 -0.585,5.962c-0.203,2.058 -0.426,4.023 -0.623,6.028c-0.223,1.965 -0.434,3.823 -0.633,5.575c-0.205,1.805 -0.412,3.358 -0.601,4.751l-4.129,-6.845c0.136,-0.663 0.333,-1.856 0.598,-3.38c0.245,-1.619 0.541,-3.409 0.86,-5.411c0.325,-2.056 0.625,-4.152 0.962,-6.313c0.331,-2.109 0.631,-4.205 0.912,-6.142c0.281,-1.937 0.5,-3.595 0.651,-4.923Zm2.758,-9.708c0.756,1.173 1.328,2.622 1.694,4.253c0.393,1.671 0.495,3.203 0.333,4.637c-0.163,1.433 -0.524,2.184 -1.136,2.172c-0.586,0.027 -1.234,-0.478 -1.912,-1.53c-0.704,-1.093 -1.255,-2.448 -1.648,-4.119c-0.399,-1.619 -0.513,-3.045 -0.362,-4.372c0.168,-1.487 0.536,-2.291 1.107,-2.465c0.598,-0.134 1.22,0.331 1.924,1.424Z" style="fill:#17a34a;fill-rule:nonzero;"/></g></g><g><path d="M63.7,68.314l203.135,315.56l630.48,-27.817l-244.091,-304.398l-589.524,16.655Z" style="fill:#826445;fill-opacity:0.24;stroke:#826445;stroke-width:8.5px;"/><path d="M63.7,68.351c-19.328,30.943 -21.398,61.806 -0.998,92.563l199.386,310.351l632.907,-22.489c-16.753,-14.974 -5.777,-95.919 2.32,-92.894l-244.697,-304.223l-588.918,16.692Z" style="fill:#826445;fill-opacity:0.15;stroke:#826445;stroke-width:8.5px;"/><path d="M267.004,383.874c-13.955,26.586 -18.773,55.473 -5.426,87.391" style="fill:none;stroke:#826445;stroke-width:8.5px;"/><path d="M897.315,355.882c1.817,1.473 1.909,4.574 -0.028,5.551l-627.515,27.526c-13.331,22.561 -15.07,47.971 -5.449,77.162l631.084,-22.447c1.838,1.288 1.708,3.836 -0,5.13" style="fill:none;stroke:#826445;stroke-width:8.5px;"/><path d="M892.617,361.433c-7.494,28.677 -8.949,52.407 -3.243,78.065l-626.43,22.474" style="fill:none;stroke:#826445;stroke-width:8.5px;"/><path d="M894.995,443.499l-5.621,-5.311" style="fill:none;stroke:#826445;stroke-width:8.5px;"/><g><path d="M626.44,145.525c-0.924,0.095 -2.284,0.046 -3.915,0.08c-1.687,-0.043 -3.427,-0.007 -5.113,-0.049c-1.686,-0.042 -3.155,-0.089 -4.243,-0.22c-1.915,-2.331 -3.886,-4.891 -6.075,-7.599c-2.081,-2.711 -4.216,-5.497 -6.351,-8.283c-2.19,-2.861 -4.216,-5.65 -6.351,-8.436c-2.027,-2.788 -3.944,-5.425 -5.751,-7.912c-1.862,-2.562 -3.396,-4.825 -4.766,-6.862l17.785,0.173c0.549,1.059 1.646,2.872 3.017,5.215c1.536,2.416 3.181,5.135 5.045,8.156c1.919,3.096 3.947,6.191 5.976,9.438c1.974,3.171 4.002,6.265 5.865,9.133c1.864,2.868 3.508,5.282 4.877,7.166Zm6.395,16.999c-3.154,0.065 -6.258,-0.56 -9.146,-1.801c-2.998,-1.239 -5.181,-2.877 -6.66,-4.912c-1.479,-2.035 -1.65,-3.637 -0.296,-4.812c1.245,-1.172 3.308,-1.826 6.136,-1.884c2.936,-0.06 5.876,0.492 8.873,1.731c2.943,1.164 5.017,2.651 6.386,4.535c1.534,2.11 1.76,3.788 0.733,5.109c-1.135,1.323 -3.09,1.975 -6.026,2.034Z" style="fill:#17a34a;fill-rule:nonzero;"/></g><g><g><path d="M278.632,170.587c-7.178,0.147 -14.144,-0.782 -20.626,-2.715c-6.536,-2.008 -12.534,-4.944 -18.101,-8.807c-5.403,-3.79 -10.158,-8.511 -14.102,-13.937c-3.724,-5.124 -5.813,-9.67 -6.268,-13.637c-0.401,-3.892 0.943,-7.055 3.868,-9.409c3.088,-2.281 7.922,-3.526 14.557,-3.661c3.806,-0.078 7.56,0.228 11.48,0.913c3.81,0.687 7.459,1.606 11,2.834c3.541,1.228 6.54,2.62 9.212,4.171c-0.16,0.539 -0.537,1.235 -1.349,2.093c-0.648,0.931 -1.404,1.864 -2.379,2.801c-0.974,0.938 -1.949,1.722 -2.925,2.354c-1.909,-1.108 -3.762,-1.988 -5.67,-2.79c-1.853,-0.727 -3.705,-1.301 -5.773,-1.718c-1.906,-0.344 -4.136,-0.527 -6.312,-0.483c-2.066,0.042 -3.859,0.461 -5.16,1.252c-1.41,0.794 -2.22,1.957 -2.593,3.418c-0.537,1.387 -0.365,3.143 0.244,5.195c0.662,1.975 1.87,4.244 3.678,6.731c2.409,3.316 5.143,6.166 8.201,8.551c3.221,2.458 6.656,4.3 10.416,5.676c3.705,1.301 7.678,1.908 11.92,1.822c2.828,-0.058 4.892,-0.559 6.193,-1.35c1.246,-0.867 1.894,-1.95 1.778,-3.325c-0.061,-1.298 -0.667,-2.739 -1.762,-4.246c-0.274,-0.377 -0.548,-0.754 -0.821,-1.131c-0.22,-0.301 -0.547,-0.6 -0.766,-0.902c-0.763,-0.137 -1.96,-0.266 -3.592,-0.385c-1.632,-0.12 -3.482,-0.235 -5.331,-0.35c-1.959,-0.113 -3.809,-0.229 -5.658,-0.344c-1.795,-0.04 -3.155,-0.088 -4.243,-0.066c-0.493,-0.679 -1.04,-1.432 -1.752,-2.412c-0.712,-0.979 -1.315,-1.961 -2.027,-2.941c-0.604,-0.982 -1.043,-1.737 -1.481,-2.34c2.719,-0.056 5.983,0.031 9.9,0.257c3.971,0.148 8.051,0.447 12.132,0.746c4.08,0.3 7.78,0.683 10.828,1.08c1.038,0.973 2.022,2.023 3.061,3.149c0.986,1.204 1.861,2.256 2.573,3.236c2.684,3.693 4.169,7.104 4.402,10.158c0.288,3.129 -0.896,5.601 -3.497,7.489c-2.71,1.891 -7.164,2.899 -13.255,3.023Z" style="fill:#17a34a;fill-rule:nonzero;"/></g><g><path d="M302.65,134.155c0.102,-1.226 0.586,-2.382 1.723,-3.4c1.082,-1.093 2.655,-1.966 4.664,-2.695c1.899,-0.727 4.291,-1.082 6.901,-1.135c1.74,-0.035 3.481,0.082 5.385,0.273c1.796,0.193 3.32,0.467 4.464,0.826l4.568,10.537c-0.926,-0.211 -2.178,-0.414 -3.702,-0.689c-1.524,-0.275 -3.157,-0.395 -4.897,-0.359c-1.849,0.037 -3.533,0.301 -4.945,0.789c-1.411,0.487 -2.605,1.124 -3.471,1.906c-0.92,0.86 -1.568,1.791 -1.889,2.868c1.53,1.498 3.389,3.449 5.577,5.851c2.242,2.325 4.32,4.73 6.563,7.208c2.242,2.478 4.211,4.732 5.908,6.762c1.805,2.028 3.009,3.533 3.721,4.513c-2.175,0.197 -4.675,0.401 -7.612,0.461c-2.882,0.135 -5.71,0.193 -8.429,0.248c-1.588,-2.185 -3.34,-4.597 -5.475,-7.23c-2.08,-2.71 -4.269,-5.419 -6.677,-8.276c-2.407,-2.857 -4.814,-5.714 -7.276,-8.493c-2.461,-2.779 -4.922,-5.406 -7.273,-7.881c-2.351,-2.476 -4.592,-4.648 -6.614,-6.519c1.304,-0.332 2.716,-0.667 4.401,-0.931c1.63,-0.339 3.206,-0.6 4.51,-0.78c1.358,-0.257 2.282,-0.352 2.717,-0.361c1.092,0.742 2.294,1.788 3.823,3.134c1.53,1.345 2.678,2.469 3.335,3.373Z" style="fill:#17a34a;fill-rule:nonzero;"/></g><g><path d="M385.975,167.558c-9.571,0.195 -18.064,-1.468 -25.369,-4.989c-7.36,-3.445 -13.531,-8.595 -18.46,-15.377c-3.231,-4.447 -4.719,-8.163 -4.408,-11.229c0.257,-2.987 2.094,-5.319 5.349,-6.915c3.256,-1.596 7.656,-2.527 13.42,-2.644c5.982,-0.122 11.588,0.758 16.873,2.562c5.284,1.804 10.029,4.384 14.397,7.66c4.367,3.275 8.194,7.174 11.37,11.545c2.738,3.767 4.061,7.105 4.075,10.011c-0.04,2.83 -1.497,5.078 -4.371,6.742c-2.929,1.589 -7.112,2.516 -12.876,2.634Zm-7.444,-9.484c2.284,-0.047 4.131,-0.39 5.488,-0.953c1.302,-0.639 2.168,-1.421 2.598,-2.501c0.375,-1.001 0.369,-2.225 -0.073,-3.592c-0.278,-1.295 -1.101,-2.731 -2.197,-4.238c-1.807,-2.487 -3.994,-4.736 -6.342,-6.6c-2.403,-1.94 -5.021,-3.416 -7.909,-4.504c-2.724,-1.015 -5.609,-1.492 -8.654,-1.43c-3.154,0.065 -5.381,0.646 -6.572,1.74c-1.245,1.173 -1.727,2.636 -1.392,4.464c0.281,1.753 1.216,3.799 2.75,5.909c2.519,3.467 5.796,6.306 9.723,8.52c4.036,2.212 8.12,3.276 12.58,3.185Z" style="fill:#17a34a;fill-rule:nonzero;"/></g><g><path d="M430.303,127.958c0.652,-0.166 1.739,-0.341 3.098,-0.445c1.413,-0.182 2.827,-0.211 4.241,-0.24c1.196,-0.024 2.501,-0.051 3.97,-0.004c1.469,0.046 2.72,0.097 3.645,0.155c2.132,2.174 4.046,4.353 6.016,6.607c1.914,2.179 3.611,4.362 5.199,6.547c2.629,3.617 4.604,6.942 6.089,10.2c1.43,3.183 1.934,6.002 1.62,8.455c-0.205,2.452 -1.664,4.393 -4.05,5.818c-2.331,1.501 -6.08,2.266 -11.083,2.368c-5.438,0.11 -10.336,-0.554 -14.911,-1.991c-4.521,-1.36 -8.719,-3.34 -12.594,-5.937c-3.874,-2.598 -7.37,-5.585 -10.705,-9.112c-3.39,-3.448 -6.454,-7.209 -9.357,-11.203c-1.424,-1.96 -2.794,-3.996 -4.164,-6.033c-1.261,-2.039 -2.631,-4.076 -3.837,-6.04c0.815,-0.093 1.903,-0.115 3.262,-0.219c1.305,-0.027 2.61,-0.054 3.698,-0.076c1.577,0.045 3.209,0.011 4.949,0.129c1.633,0.119 3.047,0.243 4.136,0.374c1.043,1.891 2.304,3.93 3.565,5.969c1.261,2.039 2.631,4.076 4.11,6.11c2.683,3.693 5.473,6.924 8.261,9.697c2.788,2.773 5.681,4.932 8.408,6.405c2.89,1.547 5.777,2.33 8.496,2.274c2.61,-0.053 4.237,-0.851 4.828,-2.316c0.646,-1.39 0.418,-3.373 -0.628,-5.875c-1.046,-2.503 -2.747,-5.451 -5.102,-8.691c-1.588,-2.185 -3.448,-4.442 -5.418,-6.696c-1.86,-2.256 -3.774,-4.282 -5.742,-6.23Z" style="fill:#17a34a;fill-rule:nonzero;"/></g><g><path d="M495.945,181.375c-2.468,-4.003 -5.1,-8.232 -7.896,-12.687c-2.905,-4.452 -5.81,-8.905 -8.66,-13.282c-3.014,-4.451 -5.808,-8.6 -8.439,-12.523c-2.739,-3.921 -5.204,-7.465 -7.286,-10.481c-2.137,-3.092 -3.889,-5.504 -5.149,-7.237c1.684,-0.416 3.749,-0.764 6.195,-1.044c2.446,-0.279 4.893,-0.405 7.394,-0.456c0.548,0.753 1.369,1.731 2.19,2.861c0.876,1.053 1.642,2.108 2.299,3.012c0.269,-0.694 1.026,-1.474 2.109,-2.414c1.083,-0.939 2.656,-1.813 4.773,-2.544c2.063,-0.807 4.78,-1.168 8.043,-1.235c7.287,-0.148 13.875,1.323 19.819,4.491c5.998,3.089 10.97,7.5 15.132,13.227c2.903,3.994 4.334,7.482 4.404,10.463c0.069,2.981 -1.224,5.302 -3.881,6.962c-2.547,1.658 -6.295,2.576 -11.298,2.678c-2.284,0.046 -4.733,-0.133 -7.399,-0.461c-2.722,-0.404 -5.171,-0.889 -7.458,-1.454c-2.287,-0.565 -4.031,-1.142 -5.175,-1.654c0.383,0.528 1.15,1.583 2.081,3.017c0.932,1.434 1.974,3.019 3.234,4.905c1.097,1.813 2.357,3.699 3.509,5.587c1.26,1.886 2.303,3.624 3.399,5.284c0.932,1.587 1.646,2.872 2.194,3.779c-1.576,0.261 -3.206,0.448 -5.055,0.638c-1.739,0.189 -3.533,0.302 -5.11,0.41c-1.74,0.036 -2.99,0.138 -3.969,0.158Zm10.016,-30.411c2.937,-0.06 5.001,-0.561 6.302,-1.352c1.247,-0.867 1.784,-2.102 1.559,-3.626c-0.116,-1.528 -0.996,-3.345 -2.529,-5.455c-2.027,-2.788 -4.594,-4.954 -7.538,-6.423c-3.053,-1.467 -6.537,-2.161 -10.452,-2.081c-2.393,0.049 -4.349,0.394 -6.032,0.964c-1.575,0.567 -2.713,1.279 -3.58,2.061c-0.812,0.705 -1.406,1.406 -1.621,2.022c0.274,0.377 0.712,0.979 1.369,1.884c0.549,0.906 1.315,1.961 1.973,3.018c0.822,1.131 1.589,2.186 2.192,3.168c0.712,0.979 1.26,1.733 1.534,2.262c1.09,0.437 2.344,0.947 4.087,1.523c1.634,0.579 3.54,1.075 5.718,1.489c2.177,0.415 4.517,0.597 7.018,0.546Z" style="fill:#17a34a;fill-rule:nonzero;"/></g><g><path d="M579.853,160.622c-0.431,0.774 -1.624,1.563 -3.686,2.37c-1.954,0.804 -4.617,1.241 -7.88,1.307c-4.35,0.089 -8.106,-0.523 -11.376,-1.986c-3.325,-1.385 -6.217,-3.391 -8.896,-6.012c-2.733,-2.698 -5.25,-5.705 -7.769,-9.172c-1.862,-2.562 -3.779,-5.199 -5.642,-7.915c-1.971,-2.712 -3.889,-5.503 -5.752,-8.218c-1.754,-2.717 -3.617,-5.432 -5.37,-7.996c-1.699,-2.642 -3.343,-5.056 -4.823,-7.397c-1.589,-2.338 -2.905,-4.452 -4.166,-6.338c2.23,-0.122 4.241,-0.24 6.199,-0.28c1.305,-0.026 2.556,0.025 3.753,0c1.36,0.049 2.719,0.098 4.188,0.144c1.261,2.039 2.85,4.378 4.55,7.02c1.644,2.566 3.398,5.283 5.152,8.001c1.809,2.792 3.672,5.507 5.371,8.149c1.754,2.718 3.398,5.131 4.878,7.319c1.479,2.187 2.794,3.996 3.834,5.428c1.26,1.733 2.519,3.313 3.831,4.816c1.368,1.578 2.788,2.772 4.261,3.737c1.528,0.886 3.107,1.389 4.63,1.358c1.414,-0.029 2.229,-0.275 2.661,-0.742c0.597,-0.395 0.811,-1.011 0.917,-1.625c0.381,0.222 1.091,0.743 2.183,1.485c1.146,0.818 2.292,1.636 3.548,2.604c1.31,0.891 2.456,1.709 3.439,2.454c0.982,0.744 1.692,1.265 1.965,1.489Z" style="fill:#17a34a;fill-rule:nonzero;"/></g><g><path d="M603.954,162.119c-0.544,0.011 -1.577,0.109 -3.045,0.215c-1.359,0.104 -2.99,0.138 -4.622,0.171c-1.305,0.026 -2.61,0.053 -3.861,0.002c-1.36,-0.049 -2.611,-0.1 -3.862,-0.151c-0.384,-0.68 -1.153,-2.041 -2.414,-4.08c-1.206,-1.964 -2.741,-4.38 -4.55,-7.172c-1.7,-2.795 -3.564,-5.663 -5.482,-8.606c-1.919,-2.944 -3.782,-5.659 -5.59,-8.298c-1.753,-2.565 -3.123,-4.602 -4.273,-6.184c0.653,-0.013 1.523,-0.031 2.773,-0.133c1.142,-0.1 2.447,-0.126 3.806,-0.231c1.523,-0.031 2.773,-0.133 4.078,-0.159c1.305,-0.027 2.338,-0.124 2.991,-0.138c0.765,0.749 1.75,1.953 3.063,3.609c1.259,1.58 2.574,3.388 4.052,5.423c1.643,2.261 3.451,4.747 5.259,7.387c1.917,2.638 3.561,5.204 5.26,7.693c1.698,2.489 3.069,4.679 4.221,6.567c1.151,1.889 1.92,3.25 2.196,4.085Zm-34.138,-39.835c-3.046,0.062 -5.985,-0.49 -8.819,-1.655c-2.834,-1.166 -4.963,-2.729 -6.387,-4.688c-1.041,-1.432 -1.318,-2.573 -1.16,-3.57c0.267,-1 0.915,-1.778 2.055,-2.337c1.139,-0.558 2.606,-0.817 4.346,-0.853c2.719,-0.055 5.441,0.501 8.112,1.746c2.78,1.244 4.855,2.884 6.279,4.843c1.26,1.733 1.485,3.258 0.676,4.575c-0.755,1.239 -2.492,1.886 -5.102,1.939Z" style="fill:#17a34a;fill-rule:nonzero;"/></g></g></g><path d="M361.743,235.863c-3.344,0.039 -6.689,-0.642 -10.036,-2.043c-3.347,-1.401 -6.576,-3.321 -9.687,-5.761c-3.112,-2.44 -5.99,-5.196 -8.635,-8.269c-2.73,-3.173 -4.588,-5.992 -5.576,-8.459c-0.987,-2.466 -1.017,-4.415 -0.089,-5.846c0.928,-1.431 2.924,-2.164 5.988,-2.2c2.54,-0.03 5.081,0.364 7.623,1.183c2.543,0.818 5.034,1.964 7.473,3.437c2.44,1.474 4.782,3.193 7.028,5.156c2.245,1.964 4.346,4.083 6.303,6.356c1.84,2.139 3.323,4.188 4.449,6.146c1.127,1.959 1.763,3.705 1.91,5.237c0.147,1.533 -0.308,2.752 -1.366,3.659c-1.058,0.906 -2.853,1.374 -5.385,1.404Zm-6.477,-7.611c1.628,-0.019 2.61,-0.475 2.945,-1.369c0.336,-0.894 0.159,-2.061 -0.531,-3.501c-0.69,-1.44 -1.738,-2.978 -3.146,-4.614c-1.043,-1.212 -2.164,-2.375 -3.363,-3.489c-1.199,-1.114 -2.438,-2.102 -3.718,-2.965c-1.28,-0.864 -2.583,-1.543 -3.91,-2.04c-1.326,-0.496 -2.647,-0.737 -3.963,-0.722c-1.484,0.018 -2.382,0.476 -2.694,1.376c-0.313,0.9 -0.114,2.104 0.595,3.611c0.71,1.508 1.859,3.185 3.447,5.03c1.425,1.656 2.926,3.141 4.505,4.457c1.578,1.316 3.199,2.354 4.862,3.114c1.662,0.761 3.319,1.131 4.971,1.112Z" style="fill-rule:nonzero;"/><path d="M367.551,213.071c-0.248,-0.721 -0.273,-1.412 -0.074,-2.072c0.199,-0.66 0.645,-1.203 1.336,-1.627c0.692,-0.424 1.627,-0.643 2.807,-0.657c0.732,-0.008 1.527,0.058 2.385,0.197c0.858,0.14 1.557,0.323 2.099,0.549l5.009,7.574c-0.471,-0.135 -1.06,-0.285 -1.766,-0.451c-0.707,-0.165 -1.418,-0.244 -2.134,-0.236c-0.744,0.009 -1.359,0.139 -1.845,0.391c-0.487,0.252 -0.833,0.603 -1.039,1.053c-0.206,0.451 -0.275,0.984 -0.206,1.599c0.965,0.929 2.156,2.102 3.574,3.519c1.418,1.418 2.863,2.879 4.336,4.384c1.472,1.505 2.798,2.873 3.975,4.106c1.178,1.232 2.017,2.139 2.518,2.721c-1.005,0.156 -2.224,0.264 -3.656,0.325c-1.433,0.061 -2.832,0.095 -4.199,0.103c-1.145,-1.33 -2.483,-2.844 -4.013,-4.54c-1.531,-1.696 -3.155,-3.466 -4.873,-5.31c-1.718,-1.844 -3.442,-3.663 -5.172,-5.457c-1.729,-1.794 -3.372,-3.461 -4.927,-5.001c-1.555,-1.54 -2.925,-2.847 -4.108,-3.921c0.584,-0.223 1.258,-0.435 2.023,-0.636c0.764,-0.201 1.467,-0.367 2.11,-0.499c0.642,-0.131 1.064,-0.204 1.266,-0.218c0.581,0.445 1.36,1.097 2.337,1.955c0.978,0.859 1.723,1.575 2.237,2.149Z" style="fill-rule:nonzero;"/><path d="M408.606,234.054c-0.254,0.019 -0.74,0.059 -1.458,0.119c-0.718,0.061 -1.499,0.096 -2.342,0.106c-0.62,0.007 -1.262,-0.004 -1.924,-0.032c-0.663,-0.028 -1.331,-0.076 -2.003,-0.144c-0.287,-0.413 -0.924,-1.255 -1.912,-2.525c-0.989,-1.271 -2.173,-2.772 -3.552,-4.504c-1.379,-1.732 -2.814,-3.522 -4.304,-5.371c-1.49,-1.849 -2.9,-3.58 -4.231,-5.195c-1.331,-1.614 -2.417,-2.911 -3.259,-3.889c0.3,-0.027 0.749,-0.059 1.347,-0.094c0.598,-0.035 1.246,-0.07 1.944,-0.106c0.698,-0.037 1.367,-0.068 2.006,-0.096c0.639,-0.027 1.146,-0.043 1.522,-0.048c0.514,0.494 1.265,1.286 2.252,2.374c0.987,1.089 2.058,2.304 3.214,3.647c1.244,1.445 2.541,2.976 3.891,4.593c1.351,1.616 2.638,3.18 3.862,4.692c1.225,1.511 2.278,2.843 3.16,3.995c0.882,1.152 1.477,1.978 1.787,2.478Zm-24.062,-24.806c-1.444,0.017 -3.009,-0.385 -4.697,-1.205c-1.688,-0.82 -3.118,-1.912 -4.29,-3.274c-0.808,-0.939 -1.267,-1.744 -1.377,-2.417c-0.11,-0.673 0.052,-1.192 0.487,-1.557c0.436,-0.365 1.067,-0.552 1.895,-0.562c1.332,-0.016 2.807,0.402 4.424,1.253c1.617,0.851 3.005,1.95 4.164,3.297c1.066,1.239 1.548,2.29 1.445,3.151c-0.103,0.861 -0.787,1.299 -2.051,1.314Z" style="fill-rule:nonzero;"/><path d="M423.431,227.754c-3.272,0.038 -6.258,-0.391 -8.958,-1.287c-2.701,-0.896 -5.085,-2.067 -7.151,-3.511c-2.067,-1.443 -3.785,-2.961 -5.155,-4.554c-1.776,-2.063 -2.726,-3.804 -2.85,-5.223c-0.124,-1.418 0.44,-2.501 1.693,-3.248c1.252,-0.746 3.074,-1.134 5.466,-1.162c3.867,-0.045 7.479,0.761 10.834,2.418c3.355,1.657 6.228,3.875 8.621,6.655c1.843,2.143 2.931,3.945 3.262,5.407c0.331,1.463 -0.001,2.573 -0.998,3.33c-0.996,0.758 -2.584,1.15 -4.764,1.175Zm14.362,17.971c-2.492,0.029 -4.959,-0.177 -7.401,-0.618c-2.442,-0.442 -4.774,-1.244 -6.996,-2.408c-2.222,-1.164 -4.25,-2.812 -6.083,-4.943c-1.135,-1.318 -1.747,-2.539 -1.834,-3.662c-0.088,-1.123 0.365,-2.054 1.358,-2.791c0.993,-0.738 2.542,-1.185 4.645,-1.342c0.937,-0.071 1.948,-0.128 3.032,-0.17c1.084,-0.043 2.378,-0.073 3.882,-0.091c2.544,-0.03 5.11,0.506 7.699,1.608c2.588,1.102 4.939,2.881 7.052,5.336c1.857,2.158 2.78,3.9 2.768,5.224c-0.012,1.324 -0.748,2.291 -2.21,2.9c-1.461,0.609 -3.432,0.928 -5.912,0.957Zm-3.728,-4.606c1.08,-0.013 1.948,-0.136 2.603,-0.37c0.656,-0.234 1.026,-0.592 1.111,-1.075c0.085,-0.483 -0.202,-1.109 -0.864,-1.877c-0.589,-0.685 -1.245,-1.217 -1.968,-1.597c-0.722,-0.38 -1.453,-0.645 -2.191,-0.796c-0.738,-0.152 -1.428,-0.224 -2.067,-0.216c-0.428,0.005 -4.102,0.048 -4.458,0.052c-0.596,0.007 -1.081,0.089 -1.456,0.245c-0.374,0.156 -0.546,0.432 -0.514,0.828c0.031,0.396 0.362,0.96 0.993,1.693c0.63,0.732 1.408,1.33 2.334,1.793c0.926,0.464 1.942,0.803 3.048,1.018c1.106,0.215 2.249,0.315 3.429,0.302Zm-13.488,-8.675c-2.547,-0.414 -4.586,-1.007 -6.119,-1.78c-1.533,-0.772 -2.709,-1.633 -3.527,-2.583c-0.634,-0.737 -1.017,-1.38 -1.15,-1.928c-0.132,-0.549 -0.109,-0.996 0.07,-1.342c0.179,-0.346 0.436,-0.577 0.773,-0.693l6.792,2.309c-0.434,0.213 -0.659,0.483 -0.674,0.811c-0.014,0.329 0.12,0.657 0.403,0.986c0.382,0.443 0.977,0.847 1.785,1.212c0.809,0.365 1.661,0.542 2.557,0.531l-0.91,2.477Zm-2.672,-10.344c1.028,-0.012 1.757,-0.179 2.186,-0.502c0.429,-0.323 0.557,-0.796 0.386,-1.418c-0.172,-0.622 -0.64,-1.376 -1.403,-2.263c-0.63,-0.733 -1.384,-1.372 -2.259,-1.918c-0.876,-0.546 -1.781,-0.971 -2.717,-1.276c-0.935,-0.306 -1.802,-0.453 -2.602,-0.444c-1.312,0.015 -2.244,0.308 -2.795,0.879c-0.552,0.57 -0.222,1.558 0.987,2.964c1.125,1.307 2.436,2.301 3.932,2.982c1.497,0.68 2.925,1.012 4.285,0.996Zm3.25,-7.448l-7.272,-3.479c-0.332,-0.62 -0.533,-1.286 -0.604,-1.997c-0.07,-0.711 -0.021,-1.376 0.148,-1.994c0.169,-0.618 0.445,-1.085 0.827,-1.402c0.503,0.322 1.218,0.776 2.144,1.361c0.925,0.585 1.872,1.176 2.84,1.773c0.968,0.597 1.775,1.087 2.421,1.472c-0.21,0.182 -0.402,0.421 -0.576,0.718c-0.173,0.296 -0.297,0.633 -0.371,1.012c-0.074,0.379 -0.08,0.784 -0.018,1.215c0.062,0.432 0.216,0.872 0.461,1.321Z" style="fill-rule:nonzero;"/><path d="M452.787,233.537c-0.254,0.019 -0.74,0.059 -1.458,0.119c-0.718,0.06 -1.499,0.096 -2.342,0.105c-0.62,0.008 -1.262,-0.003 -1.924,-0.031c-0.663,-0.028 -1.331,-0.076 -2.003,-0.145c-0.287,-0.412 -0.924,-1.254 -1.912,-2.524c-0.989,-1.271 -2.173,-2.772 -3.552,-4.504c-1.379,-1.732 -2.814,-3.522 -4.304,-5.371c-1.49,-1.849 -2.9,-3.58 -4.231,-5.195c-1.331,-1.614 -2.417,-2.911 -3.259,-3.889c0.3,-0.028 0.749,-0.059 1.347,-0.094c0.598,-0.035 1.246,-0.07 1.944,-0.107c0.698,-0.036 1.367,-0.068 2.006,-0.095c0.639,-0.028 1.146,-0.043 1.522,-0.048c0.514,0.494 1.265,1.285 2.252,2.374c0.987,1.088 2.058,2.304 3.214,3.647c1.244,1.445 2.541,2.976 3.891,4.592c1.351,1.617 2.638,3.181 3.862,4.692c1.224,1.512 2.278,2.844 3.16,3.996c0.882,1.151 1.477,1.978 1.787,2.478Zm-24.062,-24.806c-1.444,0.017 -3.009,-0.385 -4.697,-1.205c-1.688,-0.82 -3.118,-1.912 -4.29,-3.274c-0.808,-0.939 -1.267,-1.744 -1.377,-2.417c-0.11,-0.673 0.052,-1.192 0.487,-1.557c0.436,-0.365 1.067,-0.553 1.895,-0.562c1.332,-0.016 2.807,0.402 4.424,1.253c1.617,0.851 3.005,1.95 4.164,3.297c1.066,1.239 1.548,2.29 1.445,3.151c-0.103,0.861 -0.787,1.299 -2.051,1.314Z" style="fill-rule:nonzero;"/><path d="M467.787,233.721c-0.485,0.01 -1.081,0.017 -1.788,0.021c-0.708,0.005 -1.432,0.005 -2.175,0.002c-0.604,-0.017 -1.308,-0.038 -2.111,-0.063c-0.802,-0.024 -1.368,-0.051 -1.695,-0.079c-0.987,-1.32 -2.152,-2.821 -3.495,-4.501c-1.343,-1.68 -2.863,-3.544 -4.562,-5.59c-1.698,-2.046 -3.576,-4.284 -5.633,-6.712c-2.057,-2.428 -4.297,-5.05 -6.72,-7.865c0.54,-0.087 1.206,-0.16 1.999,-0.219c0.794,-0.059 1.61,-0.094 2.45,-0.104c0.596,-0.007 1.185,0.002 1.767,0.025c0.581,0.023 1.113,0.066 1.595,0.128c0.13,0.143 0.385,0.433 0.764,0.87c0.378,0.438 0.788,0.916 1.228,1.435c0.441,0.519 0.83,0.982 1.169,1.39c-0.102,-0.603 0.032,-1.241 0.403,-1.916c0.371,-0.674 0.987,-1.247 1.847,-1.719c0.86,-0.472 1.951,-0.716 3.27,-0.732c2.444,-0.028 4.734,0.436 6.868,1.393c2.135,0.957 4.28,2.404 6.435,4.341c2.156,1.937 4.49,4.365 7.002,7.284c0.865,1.006 1.853,2.187 2.962,3.544c1.109,1.357 2.249,2.78 3.418,4.268c1.17,1.489 2.267,2.933 3.29,4.333c-0.301,0.036 -0.787,0.069 -1.459,0.101c-0.671,0.032 -1.393,0.053 -2.165,0.062c-0.816,0.009 -1.6,0.007 -2.353,-0.006c-0.753,-0.013 -1.32,-0.035 -1.703,-0.067c-0.588,-0.885 -1.351,-1.994 -2.291,-3.327c-0.939,-1.333 -1.985,-2.756 -3.14,-4.269c-1.154,-1.512 -2.327,-2.962 -3.52,-4.348c-1.142,-1.327 -2.242,-2.481 -3.301,-3.462c-1.059,-0.982 -2.124,-1.742 -3.194,-2.279c-1.071,-0.538 -2.19,-0.8 -3.358,-0.786c-0.96,0.011 -1.736,0.187 -2.33,0.528c-0.593,0.341 -1.043,0.758 -1.349,1.249c-0.306,0.492 -0.518,0.97 -0.634,1.436c2.13,2.503 4.011,4.765 5.643,6.786c1.632,2.021 3.02,3.775 4.164,5.262c1.144,1.486 2.045,2.682 2.702,3.586Z" style="fill-rule:nonzero;"/><path d="M518.187,233.185c-1.204,0.014 -2.545,-0.111 -4.023,-0.376c-1.478,-0.264 -3.037,-0.667 -4.676,-1.208c-1.639,-0.541 -3.291,-1.213 -4.957,-2.018c-1.666,-0.805 -3.28,-1.734 -4.841,-2.788c-0.048,-0.167 -0.031,-0.447 0.049,-0.84c0.08,-0.393 0.194,-0.826 0.341,-1.297c0.148,-0.472 0.318,-0.91 0.512,-1.314c0.193,-0.405 0.385,-0.696 0.575,-0.874c1.035,0.588 2.095,1.169 3.18,1.745c1.085,0.575 2.162,1.095 3.232,1.558c1.069,0.464 2.107,0.83 3.113,1.101c1.006,0.27 1.944,0.4 2.811,0.39c0.98,-0.012 1.606,-0.203 1.876,-0.574c0.27,-0.371 0.294,-0.839 0.072,-1.402c-0.222,-0.564 -0.584,-1.136 -1.085,-1.719c-0.405,-0.471 -0.913,-0.92 -1.523,-1.347c-0.609,-0.427 -1.321,-0.831 -2.135,-1.214c-0.814,-0.382 -1.738,-0.755 -2.773,-1.117c-1.035,-0.361 -2.174,-0.707 -3.42,-1.037c-2.546,-0.71 -4.945,-1.461 -7.198,-2.252c-2.253,-0.792 -4.338,-1.761 -6.255,-2.906c-1.917,-1.146 -3.631,-2.596 -5.141,-4.351c-1.595,-1.853 -2.408,-3.412 -2.439,-4.675c-0.031,-1.264 0.532,-2.226 1.687,-2.885c1.156,-0.66 2.719,-1.001 4.691,-1.024c1.484,-0.018 3.069,0.128 4.754,0.436c1.685,0.308 3.414,0.78 5.187,1.415c1.773,0.636 3.522,1.443 5.246,2.423c0.065,0.344 0.091,0.811 0.08,1.403c-0.012,0.593 -0.051,1.185 -0.119,1.778c-0.067,0.593 -0.154,1.068 -0.258,1.425c-1.168,-0.61 -2.358,-1.159 -3.572,-1.647c-1.214,-0.488 -2.381,-0.874 -3.5,-1.159c-1.12,-0.285 -2.12,-0.423 -3,-0.412c-1.024,0.012 -1.7,0.241 -2.027,0.686c-0.327,0.446 -0.12,1.101 0.623,1.964c0.338,0.392 0.738,0.748 1.2,1.066c0.462,0.319 0.972,0.604 1.529,0.856c0.558,0.251 1.161,0.481 1.809,0.689c0.648,0.209 1.333,0.399 2.054,0.57c2.114,0.532 4.16,1.079 6.139,1.642c1.979,0.562 3.872,1.222 5.679,1.979c1.807,0.757 3.515,1.687 5.125,2.79c1.61,1.104 3.105,2.457 4.486,4.061c1.295,1.505 2.19,2.891 2.686,4.157c0.496,1.266 0.605,2.366 0.327,3.299c-0.277,0.934 -0.928,1.662 -1.952,2.186c-1.023,0.525 -2.413,0.797 -4.169,0.817Z" style="fill-rule:nonzero;"/><path d="M549.293,229.305c0.19,0.582 0.246,1.207 0.169,1.876c-0.076,0.669 -0.431,1.242 -1.062,1.72c-0.632,0.477 -1.683,0.724 -3.155,0.742c-1.936,0.022 -3.866,-0.362 -5.789,-1.154c-1.924,-0.791 -3.755,-1.856 -5.494,-3.194c-1.739,-1.337 -3.3,-2.81 -4.684,-4.418c-0.753,-0.875 -1.541,-1.805 -2.364,-2.79c-0.823,-0.984 -1.638,-1.965 -2.447,-2.941c-0.808,-0.977 -1.569,-1.904 -2.284,-2.782c-0.715,-0.877 -1.341,-1.651 -1.879,-2.321c-0.538,-0.669 -0.956,-1.187 -1.254,-1.551c-1.142,0.141 -2.186,0.295 -3.131,0.463c-0.945,0.167 -1.583,0.298 -1.912,0.394c-0.92,-0.881 -1.818,-1.782 -2.695,-2.702c-0.876,-0.92 -1.624,-1.72 -2.245,-2.401c-0.62,-0.68 -1.002,-1.104 -1.145,-1.27c0.822,-0.13 1.718,-0.251 2.689,-0.365c0.971,-0.113 2.017,-0.204 3.137,-0.274c-0.346,-0.383 -2.956,-3.315 -3.536,-3.96c-0.523,-0.594 -1.064,-1.188 -1.623,-1.782c-0.559,-0.593 -1.01,-1.068 -1.353,-1.424l6.556,-0.713c0.167,0.194 0.557,0.641 1.17,1.34c0.614,0.699 1.343,1.539 2.188,2.521c0.42,0.487 0.909,1.051 1.47,1.69c0.56,0.64 1.118,1.272 1.672,1.898c0.505,-0.038 1.096,-0.079 1.773,-0.123c0.677,-0.044 1.217,-0.074 1.619,-0.091c0.645,-0.043 1.234,-0.072 1.767,-0.087c0.533,-0.014 0.985,-0.02 1.354,-0.018c0.369,0.001 0.613,0.003 0.732,0.006c0.752,0.751 1.64,1.702 2.664,2.852c1.024,1.15 1.912,2.163 2.666,3.038c-0.167,-0.006 -0.68,0.009 -1.54,0.045c-0.86,0.036 -1.699,0.077 -2.516,0.123c-0.567,0.03 -1.191,0.074 -1.87,0.132c-0.679,0.058 -1.21,0.108 -1.591,0.148c0.274,0.337 0.644,0.795 1.112,1.373c0.467,0.579 1,1.228 1.599,1.95c0.598,0.721 1.216,1.466 1.855,2.237c0.639,0.771 1.26,1.513 1.863,2.228c0.603,0.715 1.144,1.35 1.621,1.904c0.9,1.046 1.757,1.982 2.571,2.809c0.814,0.826 1.607,1.479 2.379,1.958c0.772,0.479 1.537,0.714 2.297,0.705c0.5,-0.006 0.802,-0.153 0.904,-0.443c0.103,-0.289 0.107,-0.627 0.012,-1.014c-0.094,-0.387 -0.193,-0.736 -0.294,-1.046c0.456,0.286 1.077,0.661 1.861,1.124c0.784,0.463 1.605,0.943 2.461,1.441c0.857,0.498 3.456,2.002 3.702,2.147Z" style="fill-rule:nonzero;"/><path d="M565.722,232.791c-4.24,0.05 -8.393,-1.028 -12.46,-3.232c-4.066,-2.205 -7.926,-5.43 -11.58,-9.676c-2.433,-2.827 -3.907,-5.188 -4.422,-7.082c-0.515,-1.894 -0.201,-3.327 0.943,-4.299c1.144,-0.971 3.003,-1.472 5.579,-1.502c2.62,-0.031 5.309,0.537 8.068,1.703c2.758,1.165 5.471,2.79 8.138,4.873c2.668,2.083 5.182,4.496 7.544,7.241c2.058,2.392 3.384,4.479 3.978,6.26c0.593,1.781 0.418,3.171 -0.526,4.17c-0.944,0.999 -2.698,1.514 -5.262,1.544Zm-6.133,-6.817c0.876,-0.01 1.523,-0.173 1.941,-0.488c0.418,-0.314 0.62,-0.754 0.608,-1.318c-0.013,-0.564 -0.226,-1.229 -0.64,-1.996c-0.414,-0.768 -1.009,-1.603 -1.786,-2.506c-1.213,-1.41 -2.493,-2.655 -3.839,-3.735c-1.345,-1.08 -2.678,-1.921 -3.996,-2.521c-1.319,-0.601 -2.561,-0.894 -3.724,-0.881c-1.26,0.015 -2.017,0.345 -2.27,0.99c-0.253,0.645 -0.127,1.479 0.376,2.504c0.504,1.024 1.253,2.114 2.248,3.27c1.677,1.949 3.512,3.555 5.506,4.817c1.994,1.263 3.852,1.884 5.576,1.864Z" style="fill-rule:nonzero;"/><path d="M569.246,210.71c-0.249,-0.721 -0.274,-1.412 -0.075,-2.072c0.2,-0.661 0.645,-1.203 1.336,-1.627c0.692,-0.424 1.628,-0.643 2.808,-0.657c0.732,-0.008 1.526,0.057 2.384,0.197c0.858,0.14 1.558,0.323 2.099,0.549l5.009,7.574c-0.471,-0.135 -1.06,-0.285 -1.766,-0.451c-0.706,-0.165 -1.418,-0.244 -2.134,-0.236c-0.743,0.009 -1.359,0.139 -1.845,0.391c-0.486,0.252 -0.833,0.603 -1.039,1.053c-0.206,0.451 -0.275,0.983 -0.206,1.599c0.965,0.928 2.156,2.102 3.574,3.519c1.418,1.418 2.863,2.879 4.336,4.384c1.473,1.504 2.798,2.873 3.975,4.105c1.178,1.233 2.017,2.14 2.518,2.722c-1.005,0.156 -2.224,0.264 -3.656,0.325c-1.433,0.061 -2.832,0.095 -4.199,0.103c-1.145,-1.331 -2.483,-2.844 -4.013,-4.54c-1.53,-1.697 -3.155,-3.467 -4.873,-5.311c-1.718,-1.844 -3.442,-3.663 -5.171,-5.456c-1.73,-1.794 -3.372,-3.461 -4.928,-5.001c-1.555,-1.54 -2.924,-2.847 -4.107,-3.921c0.583,-0.223 1.258,-0.435 2.022,-0.636c0.764,-0.201 1.468,-0.367 2.11,-0.499c0.642,-0.131 1.064,-0.204 1.266,-0.219c0.581,0.446 1.36,1.098 2.337,1.956c0.978,0.859 1.723,1.575 2.238,2.149Z" style="fill-rule:nonzero;"/><path d="M621.51,244.241c-2.44,0.028 -4.943,-0.311 -7.51,-1.017c-2.567,-0.706 -4.829,-1.463 -6.786,-2.272c-0.251,-0.517 -0.524,-1.185 -0.818,-2.004c-0.294,-0.818 -0.555,-1.616 -0.781,-2.394c-0.227,-0.777 -0.365,-1.354 -0.413,-1.729c0.87,0.354 1.947,0.748 3.23,1.183c1.284,0.435 2.605,0.811 3.963,1.127c1.359,0.316 2.573,0.468 3.641,0.455c1.159,-0.013 1.878,-0.325 2.156,-0.934c0.277,-0.609 0.234,-1.416 -0.131,-2.42c-0.365,-1.003 -0.95,-2.11 -1.756,-3.318c-0.806,-1.209 -1.72,-2.421 -2.742,-3.638c0.159,0.603 0.155,1.172 -0.01,1.708c-0.165,0.536 -0.521,0.973 -1.068,1.311c-0.547,0.339 -1.318,0.514 -2.314,0.525c-2.46,0.029 -4.943,-0.612 -7.448,-1.923c-2.506,-1.31 -5.002,-3.093 -7.488,-5.348c-2.486,-2.255 -4.939,-4.789 -7.358,-7.601c-0.938,-1.089 -1.893,-2.228 -2.868,-3.416c-0.974,-1.189 -1.983,-2.427 -3.027,-3.715c0.214,-0.071 0.585,-0.122 1.113,-0.154c0.528,-0.032 1.11,-0.052 1.746,-0.06c0.883,-0.01 1.768,0.004 2.653,0.041c0.885,0.038 1.508,0.089 1.87,0.152c0.169,0.259 0.518,0.747 1.047,1.467c0.529,0.72 1.179,1.571 1.95,2.552c0.772,0.981 1.6,1.986 2.487,3.016c0.862,1.002 1.756,1.987 2.683,2.957c0.927,0.969 1.854,1.847 2.78,2.634c0.926,0.787 1.826,1.417 2.7,1.889c0.875,0.472 1.678,0.703 2.41,0.695c1.104,-0.013 1.659,-0.42 1.666,-1.22c0.006,-0.8 -0.432,-1.914 -1.316,-3.342c-0.883,-1.428 -2.109,-3.086 -3.679,-4.976c-0.487,-0.594 -0.981,-1.191 -1.482,-1.789c-0.5,-0.598 -0.975,-1.159 -1.422,-1.681c-0.448,-0.523 -0.837,-0.969 -1.166,-1.337c-0.329,-0.368 -0.557,-0.619 -0.685,-0.754c0.353,-0.036 0.707,-0.066 1.062,-0.09c0.355,-0.024 0.716,-0.039 1.084,-0.043c1.472,-0.017 3.06,0.122 4.766,0.418c1.621,1.785 3.421,3.828 5.401,6.129c1.251,1.454 2.571,3.008 3.96,4.661c1.389,1.654 2.794,3.347 4.215,5.078c1.421,1.732 2.823,3.46 4.206,5.184c2.19,2.714 3.711,5.117 4.562,7.21c0.851,2.092 0.889,3.738 0.113,4.937c-0.776,1.199 -2.508,1.814 -5.196,1.846Z" style="fill-rule:nonzero;"/></g></svg>