<?xml version="1.0" encoding="UTF-8" standalone="no"?><!DOCTYPE svg PUBLIC "-//W3C//DTD SVG 1.1//EN" "http://www.w3.org/Graphics/SVG/1.1/DTD/svg11.dtd"><svg width="100%" height="100%" viewBox="0 0 960 541" version="1.1" xmlns="http://www.w3.org/2000/svg" xmlns:xlink="http://www.w3.org/1999/xlink" xml:space="preserve" xmlns:serif="http://www.serif.com/" style="fill-rule:evenodd;clip-rule:evenodd;stroke-linejoin:round;stroke-miterlimit:2;"><rect id="groupli-is-live" x="0" y="0.014" width="960" height="540" style="fill:none;"/><clipPath id="_clip1"><rect x="0" y="0.014" width="960" height="540"/></clipPath><g clip-path="url(#_clip1)"><rect x="0.85" y="0.432" width="966.983" height="575.444" style="fill:#eee;"/><g transform="matrix(209.298,0,0,209.298,93.1101,260.604)"><path d="M0.346,0.024c-0.066,0 -0.123,-0.014 -0.169,-0.041c-0.046,-0.028 -0.081,-0.068 -0.106,-0.12c-0.024,-0.051 -0.036,-0.114 -0.036,-0.186c0,-0.068 0.011,-0.128 0.033,-0.18c0.022,-0.051 0.055,-0.092 0.097,-0.122c0.043,-0.029 0.095,-0.044 0.156,-0.044c0.035,0 0.067,0.005 0.098,0.015c0.03,0.01 0.057,0.023 0.081,0.04c0.024,0.017 0.042,0.036 0.056,0.057c-0.005,0.007 -0.013,0.016 -0.026,0.027c-0.012,0.012 -0.025,0.024 -0.04,0.036c-0.015,0.012 -0.029,0.022 -0.042,0.03c-0.01,-0.015 -0.021,-0.027 -0.033,-0.038c-0.012,-0.01 -0.025,-0.018 -0.041,-0.024c-0.015,-0.005 -0.034,-0.008 -0.054,-0.008c-0.019,-0 -0.038,0.005 -0.055,0.015c-0.018,0.01 -0.033,0.025 -0.046,0.044c-0.014,0.018 -0.024,0.041 -0.032,0.068c-0.007,0.026 -0.011,0.056 -0.011,0.089c-0,0.044 0.006,0.082 0.018,0.114c0.013,0.033 0.032,0.058 0.057,0.077c0.025,0.018 0.057,0.027 0.096,0.027c0.026,-0 0.048,-0.006 0.065,-0.016c0.017,-0.011 0.03,-0.025 0.038,-0.043c0.008,-0.017 0.012,-0.036 0.012,-0.056c0,-0.005 0,-0.01 0,-0.015c-0,-0.004 -0.001,-0.008 -0.001,-0.012c-0.006,-0.002 -0.016,-0.004 -0.03,-0.006c-0.014,-0.002 -0.03,-0.004 -0.046,-0.006c-0.017,-0.002 -0.033,-0.004 -0.049,-0.006c-0.016,-0.001 -0.028,-0.002 -0.038,-0.002c-0,-0.009 -0,-0.019 -0,-0.032c0,-0.013 0.001,-0.026 0.001,-0.039c0.001,-0.013 0.002,-0.023 0.002,-0.031c0.025,0 0.054,0.002 0.088,0.006c0.035,0.003 0.07,0.008 0.105,0.013c0.035,0.005 0.066,0.011 0.091,0.017c0.003,0.013 0.005,0.027 0.007,0.042c0.001,0.016 0.002,0.03 0.002,0.043c-0,0.049 -0.009,0.094 -0.027,0.134c-0.018,0.041 -0.045,0.073 -0.081,0.097c-0.037,0.024 -0.084,0.036 -0.14,0.036Z" style="fill:#17a34a;fill-rule:nonzero;"/></g><g transform="matrix(209.298,0,0,209.298,226.538,260.604)"><path d="M0.166,-0.446c0.009,-0.016 0.021,-0.031 0.038,-0.044c0.017,-0.014 0.037,-0.025 0.06,-0.034c0.022,-0.009 0.046,-0.013 0.07,-0.013c0.016,0 0.031,0.002 0.047,0.005c0.015,0.003 0.027,0.007 0.035,0.012l-0.028,0.139c-0.007,-0.003 -0.017,-0.006 -0.029,-0.01c-0.012,-0.004 -0.026,-0.006 -0.042,-0.006c-0.017,0 -0.034,0.003 -0.05,0.009c-0.016,0.006 -0.031,0.014 -0.044,0.024c-0.014,0.011 -0.026,0.023 -0.036,0.037c0.004,0.02 0.008,0.046 0.012,0.078c0.005,0.031 0.008,0.063 0.012,0.096c0.004,0.033 0.007,0.063 0.009,0.09c0.003,0.027 0.004,0.047 0.004,0.06c-0.021,0.002 -0.045,0.004 -0.072,0.004c-0.027,0.001 -0.053,0.001 -0.078,0.001c0,-0.029 -0,-0.061 -0.002,-0.096c-0.001,-0.036 -0.003,-0.072 -0.006,-0.11c-0.003,-0.038 -0.006,-0.076 -0.01,-0.113c-0.004,-0.037 -0.009,-0.072 -0.014,-0.105c-0.005,-0.033 -0.011,-0.062 -0.017,-0.087c0.014,-0.004 0.029,-0.008 0.046,-0.011c0.017,-0.004 0.033,-0.007 0.046,-0.009c0.014,-0.003 0.023,-0.004 0.027,-0.004c0.005,0.01 0.009,0.024 0.014,0.042c0.005,0.018 0.008,0.033 0.008,0.045Z" style="fill:#17a34a;fill-rule:nonzero;"/></g><g transform="matrix(209.298,0,0,209.298,310.467,260.604)"><path d="M0.3,0.013c-0.088,-0 -0.154,-0.024 -0.197,-0.072c-0.044,-0.047 -0.066,-0.116 -0.066,-0.206c0,-0.059 0.011,-0.108 0.034,-0.148c0.022,-0.039 0.054,-0.069 0.094,-0.089c0.04,-0.02 0.086,-0.031 0.139,-0.031c0.055,0 0.1,0.013 0.136,0.038c0.036,0.025 0.062,0.06 0.08,0.104c0.018,0.044 0.027,0.096 0.027,0.154c-0,0.05 -0.01,0.094 -0.029,0.132c-0.019,0.037 -0.047,0.066 -0.084,0.087c-0.037,0.02 -0.081,0.031 -0.134,0.031Zm-0.005,-0.126c0.021,0 0.04,-0.004 0.056,-0.011c0.016,-0.008 0.029,-0.018 0.04,-0.032c0.01,-0.013 0.018,-0.029 0.023,-0.047c0.006,-0.017 0.008,-0.036 0.008,-0.056c0,-0.033 -0.005,-0.063 -0.014,-0.088c-0.009,-0.026 -0.023,-0.046 -0.042,-0.061c-0.018,-0.014 -0.041,-0.021 -0.069,-0.021c-0.029,-0 -0.053,0.007 -0.071,0.021c-0.019,0.015 -0.033,0.034 -0.042,0.058c-0.009,0.023 -0.014,0.05 -0.014,0.078c0,0.046 0.011,0.084 0.032,0.114c0.022,0.03 0.052,0.045 0.093,0.045Z" style="fill:#17a34a;fill-rule:nonzero;"/></g><g transform="matrix(209.298,0,0,209.298,432.985,260.604)"><path d="M0.377,-0.493c0.007,-0.002 0.018,-0.004 0.031,-0.005c0.014,-0.002 0.027,-0.002 0.04,-0.002c0.011,-0 0.023,-0 0.036,0.001c0.013,0.001 0.024,0.002 0.032,0.003c0.005,0.029 0.008,0.058 0.011,0.088c0.003,0.029 0.004,0.058 0.004,0.087c0,0.048 -0.004,0.092 -0.012,0.135c-0.008,0.042 -0.022,0.079 -0.041,0.111c-0.018,0.032 -0.044,0.057 -0.075,0.075c-0.031,0.019 -0.07,0.028 -0.116,0.028c-0.05,-0 -0.09,-0.01 -0.122,-0.03c-0.032,-0.019 -0.057,-0.046 -0.075,-0.081c-0.018,-0.035 -0.03,-0.075 -0.037,-0.122c-0.008,-0.046 -0.011,-0.096 -0.011,-0.149c-0,-0.026 0.001,-0.053 0.002,-0.08c0.002,-0.027 0.003,-0.054 0.005,-0.08c0.008,-0.001 0.018,-0.001 0.031,-0.002c0.012,0 0.024,0 0.034,0c0.014,0.001 0.029,0.001 0.044,0.003c0.014,0.002 0.026,0.004 0.035,0.006c-0.003,0.025 -0.005,0.052 -0.007,0.079c-0.002,0.027 -0.003,0.054 -0.003,0.081c0,0.049 0.004,0.092 0.011,0.129c0.007,0.037 0.019,0.066 0.034,0.086c0.016,0.021 0.037,0.032 0.062,0.032c0.024,-0 0.044,-0.01 0.059,-0.029c0.015,-0.018 0.026,-0.044 0.033,-0.077c0.007,-0.033 0.011,-0.072 0.011,-0.115c-0,-0.029 -0.002,-0.059 -0.005,-0.089c-0.002,-0.03 -0.006,-0.057 -0.011,-0.083Z" style="fill:#17a34a;fill-rule:nonzero;"/></g><g transform="matrix(209.298,0,0,209.298,556.261,260.604)"><path d="M0.031,0.223c0.004,-0.053 0.008,-0.109 0.012,-0.168c0.003,-0.059 0.006,-0.118 0.009,-0.176c0.002,-0.059 0.004,-0.114 0.006,-0.166c0.001,-0.052 0.002,-0.099 0.003,-0.139c0.001,-0.041 0.001,-0.073 0.001,-0.096c0.018,-0.005 0.039,-0.009 0.063,-0.012c0.024,-0.003 0.047,-0.004 0.07,-0.004c0,0.01 0.001,0.023 0.001,0.038c0.001,0.014 0.001,0.028 0.001,0.04c0.007,-0.009 0.019,-0.019 0.035,-0.031c0.016,-0.012 0.036,-0.023 0.06,-0.032c0.024,-0.01 0.051,-0.014 0.081,-0.014c0.067,-0 0.117,0.021 0.15,0.064c0.034,0.042 0.05,0.101 0.05,0.177c0,0.053 -0.01,0.099 -0.029,0.138c-0.019,0.039 -0.046,0.069 -0.081,0.09c-0.034,0.021 -0.074,0.032 -0.12,0.032c-0.021,-0 -0.042,-0.003 -0.064,-0.008c-0.022,-0.006 -0.041,-0.013 -0.058,-0.021c-0.017,-0.008 -0.029,-0.016 -0.036,-0.023c0,0.007 -0,0.021 -0.001,0.04c-0.001,0.019 -0.002,0.04 -0.003,0.065c-0.002,0.024 -0.003,0.049 -0.005,0.074c-0.001,0.025 -0.003,0.048 -0.004,0.07c-0.002,0.021 -0.004,0.038 -0.005,0.05c-0.016,0.003 -0.032,0.005 -0.05,0.007c-0.017,0.002 -0.034,0.003 -0.049,0.004c-0.016,0 -0.028,0.001 -0.037,0.001Zm0.291,-0.395c0.027,-0 0.049,-0.006 0.066,-0.016c0.017,-0.011 0.03,-0.027 0.038,-0.047c0.009,-0.02 0.013,-0.044 0.013,-0.072c-0,-0.037 -0.009,-0.066 -0.026,-0.086c-0.018,-0.02 -0.045,-0.03 -0.081,-0.03c-0.022,-0 -0.042,0.004 -0.061,0.011c-0.018,0.007 -0.033,0.016 -0.046,0.026c-0.012,0.009 -0.022,0.018 -0.028,0.026c0,0.005 0,0.013 -0,0.025c-0.001,0.012 -0.001,0.026 -0.002,0.04c-0,0.015 -0,0.029 -0.001,0.042c-0,0.013 -0,0.023 -0.001,0.03c0.007,0.006 0.015,0.013 0.027,0.021c0.011,0.008 0.025,0.015 0.042,0.021c0.017,0.006 0.037,0.009 0.06,0.009Z" style="fill:#17a34a;fill-rule:nonzero;"/></g><g transform="matrix(209.298,0,0,209.298,683.698,260.604)"><path d="M0.319,-0.026c-0.009,0.01 -0.025,0.02 -0.049,0.03c-0.023,0.01 -0.05,0.015 -0.08,0.015c-0.04,0 -0.07,-0.009 -0.09,-0.029c-0.021,-0.019 -0.034,-0.046 -0.041,-0.081c-0.007,-0.036 -0.01,-0.076 -0.01,-0.122c-0,-0.034 0,-0.069 0.001,-0.105c0,-0.036 0.001,-0.073 0.002,-0.109c0.002,-0.036 0.003,-0.072 0.004,-0.106c0.002,-0.035 0.003,-0.067 0.005,-0.098c0.001,-0.031 0.003,-0.059 0.004,-0.084c0.021,-0.001 0.04,-0.002 0.058,-0.002c0.012,0 0.023,0.001 0.034,0.001c0.012,0.001 0.024,0.002 0.037,0.003c-0.002,0.027 -0.003,0.058 -0.005,0.093c-0.002,0.034 -0.004,0.07 -0.006,0.106c-0.002,0.037 -0.003,0.073 -0.005,0.108c-0.002,0.036 -0.003,0.068 -0.004,0.097c-0.001,0.029 -0.001,0.053 -0.001,0.072c-0,0.023 0.001,0.044 0.003,0.064c0.002,0.021 0.007,0.037 0.014,0.05c0.008,0.012 0.019,0.019 0.033,0.019c0.013,-0 0.022,-0.003 0.029,-0.009c0.008,-0.005 0.014,-0.013 0.019,-0.021c0.002,0.003 0.005,0.01 0.01,0.02c0.005,0.011 0.01,0.022 0.015,0.035c0.006,0.012 0.011,0.023 0.015,0.033c0.004,0.01 0.007,0.017 0.008,0.02Z" style="fill:#17a34a;fill-rule:nonzero;"/></g><g transform="matrix(209.298,0,0,209.298,751.197,260.604)"><path d="M0.205,-0c-0.005,-0 -0.015,0.001 -0.029,0.002c-0.013,0.001 -0.028,0.001 -0.043,0.001c-0.012,0 -0.024,-0 -0.035,-0.001c-0.012,-0.001 -0.023,-0.002 -0.034,-0.003c0.001,-0.009 0.003,-0.027 0.005,-0.054c0.002,-0.026 0.004,-0.058 0.006,-0.095c0.003,-0.037 0.005,-0.075 0.007,-0.114c0.002,-0.039 0.003,-0.075 0.004,-0.11c0.001,-0.034 0.002,-0.061 0.002,-0.082c0.006,0 0.014,-0 0.026,-0.001c0.011,-0.001 0.023,-0.001 0.036,-0.002c0.014,-0 0.026,-0.001 0.038,-0.001c0.012,-0 0.022,-0.001 0.028,-0.001c0.002,0.01 0.003,0.026 0.004,0.048c0.001,0.021 0.001,0.045 0.001,0.072c0,0.03 0,0.063 -0.001,0.098c-0,0.035 -0.002,0.069 -0.003,0.102c-0.001,0.033 -0.003,0.062 -0.005,0.087c-0.002,0.025 -0.004,0.043 -0.007,0.054Zm-0.047,-0.53c-0.028,0 -0.051,-0.008 -0.069,-0.024c-0.018,-0.016 -0.027,-0.037 -0.027,-0.063c0,-0.019 0.005,-0.034 0.013,-0.047c0.009,-0.013 0.02,-0.023 0.034,-0.03c0.014,-0.007 0.029,-0.01 0.045,-0.01c0.025,0 0.046,0.008 0.062,0.025c0.017,0.017 0.025,0.039 0.025,0.065c-0,0.023 -0.008,0.043 -0.024,0.06c-0.015,0.016 -0.035,0.024 -0.059,0.024Z" style="fill:#17a34a;fill-rule:nonzero;"/></g><g transform="matrix(209.298,0,0,209.298,815.033,260.604)"><path d="M0.213,-0.211c-0.009,0.001 -0.021,0 -0.036,-0c-0.015,-0.001 -0.031,-0.001 -0.046,-0.002c-0.015,-0.001 -0.028,-0.002 -0.037,-0.004c-0.002,-0.031 -0.003,-0.065 -0.005,-0.101c-0.001,-0.036 -0.002,-0.073 -0.003,-0.11c-0.001,-0.038 -0.001,-0.075 -0.002,-0.112c0,-0.037 -0,-0.072 0,-0.105c0,-0.034 0.001,-0.064 0.002,-0.091l0.16,0.007c-0.002,0.014 -0.004,0.038 -0.007,0.069c-0.002,0.032 -0.005,0.068 -0.008,0.108c-0.003,0.041 -0.005,0.082 -0.008,0.125c-0.003,0.042 -0.005,0.083 -0.007,0.121c-0.002,0.038 -0.003,0.07 -0.003,0.095Zm-0.054,0.224c-0.029,0 -0.053,-0.009 -0.071,-0.026c-0.019,-0.017 -0.028,-0.039 -0.028,-0.066c-0,-0.027 0.009,-0.048 0.029,-0.063c0.019,-0.015 0.042,-0.023 0.068,-0.023c0.027,0 0.05,0.008 0.069,0.025c0.019,0.016 0.028,0.036 0.028,0.061c0,0.028 -0.009,0.05 -0.027,0.067c-0.019,0.017 -0.041,0.025 -0.068,0.025Z" style="fill:#17a34a;fill-rule:nonzero;"/></g><g transform="matrix(209.298,0,0,209.298,889.125,260.604)"></g><path d="M362.12,340.778l-31.059,-67.396l-88.758,-41.663l-45.404,41.663l-65.167,76.297" style="fill:#cbcbcb;"/><path d="M-35.458,383.116l142.527,-138.99l191.854,138.99" style="fill:#cbcbcb;"/><path d="M166.95,408.283l228.391,-180.03l161.949,164.363" style="fill:#cbcbcb;"/><path d="M445.065,364.792l39.276,-46.524l72.949,-48.254l51.486,66.845l57.278,46.257" style="fill:#cbcbcb;"/><path d="M551.422,367.28l153.281,-123.154l166.716,138.99" style="fill:#cbcbcb;"/><path d="M787.121,364.792l30.367,-26.638l71.549,-51.568l78.796,64.711l22.148,31.819" style="fill:#cbcbcb;"/><rect x="-70.57" y="364.792" width="1111.57" height="197.356" style="fill:#cbcbcb;"/></g></svg>