<?xml version="1.0" encoding="UTF-8" standalone="no"?><!DOCTYPE svg PUBLIC "-//W3C//DTD SVG 1.1//EN" "http://www.w3.org/Graphics/SVG/1.1/DTD/svg11.dtd"><svg width="100%" height="100%" viewBox="0 0 485 485" version="1.1" xmlns="http://www.w3.org/2000/svg" xmlns:xlink="http://www.w3.org/1999/xlink" xml:space="preserve" xmlns:serif="http://www.serif.com/" style="fill-rule:evenodd;clip-rule:evenodd;stroke-linecap:round;stroke-linejoin:round;stroke-miterlimit:1.5;"><rect id="logo" x="0" y="0" width="485" height="485" style="fill:none;"/><path d="M464.298,127.945l-35.676,245.999c-3.417,23.561 -25.319,39.915 -48.88,36.498l-149.22,-21.64c-23.561,-3.417 -39.915,-25.32 -36.498,-48.881l35.675,-245.999c3.417,-23.561 25.32,-39.915 48.881,-36.498l149.219,21.64c23.562,3.417 39.916,25.32 36.499,48.881Z" style="fill:#ebebeb;stroke:#cfcfcf;stroke-width:10px;"/><path d="M346.505,282.296c-2.795,-0.374 -6.704,-0.977 -11.728,-1.811c-5.023,-0.833 -10.04,-1.746 -15.049,-2.739c-5.01,-0.993 -9.051,-1.891 -12.124,-2.694c0.845,-10.508 1.845,-21.748 2.999,-33.721c1.154,-11.973 2.424,-24.182 3.809,-36.629c1.385,-12.446 2.827,-24.762 4.324,-36.948c1.498,-12.186 3.02,-23.791 4.565,-34.814c1.545,-11.024 3.064,-21.011 4.556,-29.961l52.658,9.359c-1.264,4.833 -3.028,12.391 -5.294,22.674c-2.266,10.283 -4.759,22.052 -7.478,35.307c-2.72,13.256 -5.457,26.873 -8.21,40.853c-2.754,13.979 -5.277,27.208 -7.571,39.687c-2.293,12.479 -4.112,22.958 -5.457,31.437Zm-27.626,71.525c-9.526,-1.274 -16.995,-5.195 -22.407,-11.763c-5.413,-6.567 -7.528,-14.262 -6.348,-23.086c1.179,-8.809 5.315,-15.293 12.408,-19.451c7.093,-4.158 14.982,-5.656 23.668,-4.494c8.865,1.186 16.059,4.857 21.583,11.012c5.524,6.154 7.743,13.286 6.658,21.393c-1.249,9.333 -5.265,16.362 -12.049,21.087c-6.783,4.725 -14.621,6.492 -23.513,5.302Z" style="fill:#17a34a;fill-rule:nonzero;"/><path d="M269.878,96.48l36.495,239.145c3.869,25.351 -13.572,49.074 -38.924,52.943l-160.559,24.502c-25.351,3.869 -49.074,-13.572 -52.943,-38.924l-36.494,-239.145c-3.869,-25.351 13.572,-49.074 38.923,-52.943l160.559,-24.502c25.352,-3.869 49.075,13.572 52.943,38.924Z" style="fill:#ebebeb;stroke:#cfcfcf;stroke-width:10px;"/><path d="M188.205,350.213c-23.197,3.224 -43.53,1.135 -60.999,-6.266c-17.469,-7.401 -31.682,-19.561 -42.639,-36.48c-10.957,-16.919 -18.192,-38.017 -21.705,-63.294c-3.282,-23.619 -2.323,-45.041 2.877,-64.265c5.2,-19.223 14.502,-35.015 27.906,-47.373c13.404,-12.359 30.766,-20.02 52.087,-22.983c12.246,-1.701 23.919,-1.574 35.021,0.381c11.101,1.956 21.181,5.31 30.239,10.063c9.059,4.752 16.568,10.539 22.527,17.361c-1.464,2.486 -4.061,6.034 -7.794,10.645c-3.733,4.61 -7.882,9.367 -12.448,14.271c-4.567,4.905 -8.991,9.122 -13.274,12.652c-4.046,-4.685 -8.406,-8.564 -13.081,-11.635c-4.674,-3.072 -9.863,-5.186 -15.568,-6.342c-5.706,-1.157 -12.165,-1.234 -19.379,-0.231c-6.704,0.931 -12.851,3.583 -18.44,7.955c-5.59,4.372 -10.255,10.164 -13.996,17.377c-3.742,7.214 -6.3,15.66 -7.675,25.339c-1.376,9.678 -1.263,20.277 0.338,31.796c2.1,15.111 6.11,28.074 12.031,38.888c5.921,10.815 13.739,18.779 23.456,23.892c9.716,5.113 21.352,6.728 34.907,4.844c9.119,-1.267 16.394,-4.176 21.825,-8.726c5.431,-4.55 9.163,-10.094 11.197,-16.632c2.034,-6.539 2.562,-13.328 1.584,-20.367c-0.245,-1.76 -0.507,-3.432 -0.786,-5.017c-0.28,-1.584 -0.633,-3.058 -1.06,-4.422c-2.237,-0.208 -5.829,-0.346 -10.775,-0.415c-4.947,-0.069 -10.409,-0.062 -16.386,0.02c-5.978,0.082 -11.723,0.243 -17.234,0.483c-5.511,0.239 -10.006,0.534 -13.486,0.884c-0.442,-2.859 -0.924,-6.546 -1.448,-11.061c-0.524,-4.516 -0.995,-9.053 -1.414,-13.613c-0.418,-4.56 -0.677,-8.263 -0.777,-11.111c8.422,-0.948 18.749,-1.66 30.98,-2.137c12.23,-0.477 24.62,-0.664 37.168,-0.562c12.549,0.102 23.436,0.653 32.663,1.654c1.636,4.309 3.056,9.111 4.259,14.407c1.203,5.295 2.122,10.227 2.756,14.793c2.387,17.176 1.468,33.256 -2.758,48.238c-4.226,14.982 -12.135,27.54 -23.727,37.675c-11.593,10.136 -27.25,16.574 -46.972,19.314Z" style="fill:#17a34a;fill-rule:nonzero;"/></svg>